<mxfile host="app.diagrams.net" modified="2023-10-20T08:09:26.844Z" agent="Mozilla/5.0 (Windows NT 10.0; Win64; x64) AppleWebKit/537.36 (KHTML, like Gecko) Chrome/117.0.0.0 Safari/537.36" etag="GeQhbVFousSQumtakePI" version="22.0.5" type="github">
  <diagram id="C5RBs43oDa-KdzZeNtuy" name="Page-1">
    <mxGraphModel dx="1050" dy="542" grid="1" gridSize="10" guides="1" tooltips="1" connect="1" arrows="1" fold="1" page="1" pageScale="1" pageWidth="827" pageHeight="1169" math="0" shadow="0">
      <root>
        <mxCell id="WIyWlLk6GJQsqaUBKTNV-0" />
        <mxCell id="WIyWlLk6GJQsqaUBKTNV-1" parent="WIyWlLk6GJQsqaUBKTNV-0" />
        <mxCell id="Eg5a3BYA8h1zlYp_-Abq-8" style="edgeStyle=orthogonalEdgeStyle;rounded=0;orthogonalLoop=1;jettySize=auto;html=1;exitX=0.5;exitY=1;exitDx=0;exitDy=0;entryX=0.5;entryY=0;entryDx=0;entryDy=0;" parent="WIyWlLk6GJQsqaUBKTNV-1" source="WIyWlLk6GJQsqaUBKTNV-3" target="WIyWlLk6GJQsqaUBKTNV-6" edge="1">
          <mxGeometry relative="1" as="geometry">
            <mxPoint x="259.5" y="87" as="targetPoint" />
          </mxGeometry>
        </mxCell>
        <mxCell id="WIyWlLk6GJQsqaUBKTNV-3" value="App首页" style="rounded=1;whiteSpace=wrap;html=1;fontSize=12;glass=0;strokeWidth=1;shadow=0;" parent="WIyWlLk6GJQsqaUBKTNV-1" vertex="1">
          <mxGeometry x="200" y="29" width="120" height="40" as="geometry" />
        </mxCell>
        <mxCell id="Eg5a3BYA8h1zlYp_-Abq-11" style="edgeStyle=orthogonalEdgeStyle;rounded=0;orthogonalLoop=1;jettySize=auto;html=1;exitX=0.5;exitY=1;exitDx=0;exitDy=0;entryX=0.5;entryY=0;entryDx=0;entryDy=0;" parent="WIyWlLk6GJQsqaUBKTNV-1" edge="1">
          <mxGeometry relative="1" as="geometry">
            <mxPoint x="259.78999999999996" y="179" as="sourcePoint" />
            <mxPoint x="259.78999999999996" y="217" as="targetPoint" />
            <Array as="points">
              <mxPoint x="259.78999999999996" y="189" />
              <mxPoint x="259.78999999999996" y="189" />
            </Array>
          </mxGeometry>
        </mxCell>
        <mxCell id="Eg5a3BYA8h1zlYp_-Abq-18" value="是" style="edgeLabel;html=1;align=center;verticalAlign=middle;resizable=0;points=[];" parent="Eg5a3BYA8h1zlYp_-Abq-11" vertex="1" connectable="0">
          <mxGeometry x="0.033" y="-3" relative="1" as="geometry">
            <mxPoint as="offset" />
          </mxGeometry>
        </mxCell>
        <mxCell id="WIyWlLk6GJQsqaUBKTNV-6" value="是否有角色缓存？" style="rhombus;whiteSpace=wrap;html=1;shadow=0;fontFamily=Helvetica;fontSize=12;align=center;strokeWidth=1;spacing=6;spacingTop=-4;" parent="WIyWlLk6GJQsqaUBKTNV-1" vertex="1">
          <mxGeometry x="210" y="99" width="100" height="80" as="geometry" />
        </mxCell>
        <mxCell id="Eg5a3BYA8h1zlYp_-Abq-13" style="edgeStyle=orthogonalEdgeStyle;rounded=0;orthogonalLoop=1;jettySize=auto;html=1;exitX=0.5;exitY=1;exitDx=0;exitDy=0;entryX=0.5;entryY=0;entryDx=0;entryDy=0;" parent="WIyWlLk6GJQsqaUBKTNV-1" source="WIyWlLk6GJQsqaUBKTNV-7" target="WIyWlLk6GJQsqaUBKTNV-10" edge="1">
          <mxGeometry relative="1" as="geometry" />
        </mxCell>
        <mxCell id="Eg5a3BYA8h1zlYp_-Abq-53" style="edgeStyle=orthogonalEdgeStyle;rounded=0;orthogonalLoop=1;jettySize=auto;html=1;exitX=1;exitY=0.5;exitDx=0;exitDy=0;" parent="WIyWlLk6GJQsqaUBKTNV-1" source="WIyWlLk6GJQsqaUBKTNV-7" target="Eg5a3BYA8h1zlYp_-Abq-37" edge="1">
          <mxGeometry relative="1" as="geometry" />
        </mxCell>
        <mxCell id="WIyWlLk6GJQsqaUBKTNV-7" value="显示默认商户角色" style="rounded=1;whiteSpace=wrap;html=1;fontSize=12;glass=0;strokeWidth=1;shadow=0;" parent="WIyWlLk6GJQsqaUBKTNV-1" vertex="1">
          <mxGeometry x="364" y="217" width="120" height="40" as="geometry" />
        </mxCell>
        <mxCell id="Eg5a3BYA8h1zlYp_-Abq-15" style="edgeStyle=orthogonalEdgeStyle;rounded=0;orthogonalLoop=1;jettySize=auto;html=1;exitX=1;exitY=0.5;exitDx=0;exitDy=0;" parent="WIyWlLk6GJQsqaUBKTNV-1" source="WIyWlLk6GJQsqaUBKTNV-10" target="WIyWlLk6GJQsqaUBKTNV-12" edge="1">
          <mxGeometry relative="1" as="geometry" />
        </mxCell>
        <mxCell id="Eg5a3BYA8h1zlYp_-Abq-20" value="否" style="edgeLabel;html=1;align=center;verticalAlign=middle;resizable=0;points=[];" parent="Eg5a3BYA8h1zlYp_-Abq-15" vertex="1" connectable="0">
          <mxGeometry x="-0.1889" relative="1" as="geometry">
            <mxPoint as="offset" />
          </mxGeometry>
        </mxCell>
        <mxCell id="WIyWlLk6GJQsqaUBKTNV-10" value="调用查询角色接口是否成功？" style="rhombus;whiteSpace=wrap;html=1;shadow=0;fontFamily=Helvetica;fontSize=12;align=center;strokeWidth=1;spacing=6;spacingTop=-4;" parent="WIyWlLk6GJQsqaUBKTNV-1" vertex="1">
          <mxGeometry x="210" y="319" width="100" height="80" as="geometry" />
        </mxCell>
        <mxCell id="Eg5a3BYA8h1zlYp_-Abq-36" style="edgeStyle=orthogonalEdgeStyle;rounded=0;orthogonalLoop=1;jettySize=auto;html=1;exitX=0.5;exitY=1;exitDx=0;exitDy=0;entryX=0.5;entryY=0;entryDx=0;entryDy=0;" parent="WIyWlLk6GJQsqaUBKTNV-1" source="WIyWlLk6GJQsqaUBKTNV-11" target="Eg5a3BYA8h1zlYp_-Abq-33" edge="1">
          <mxGeometry relative="1" as="geometry" />
        </mxCell>
        <mxCell id="WIyWlLk6GJQsqaUBKTNV-11" value="切换至其他角色" style="rounded=1;whiteSpace=wrap;html=1;fontSize=12;glass=0;strokeWidth=1;shadow=0;" parent="WIyWlLk6GJQsqaUBKTNV-1" vertex="1">
          <mxGeometry x="201" y="574" width="120" height="40" as="geometry" />
        </mxCell>
        <mxCell id="WIyWlLk6GJQsqaUBKTNV-12" value="Toast提示" style="rounded=1;whiteSpace=wrap;html=1;fontSize=12;glass=0;strokeWidth=1;shadow=0;" parent="WIyWlLk6GJQsqaUBKTNV-1" vertex="1">
          <mxGeometry x="360" y="339" width="120" height="40" as="geometry" />
        </mxCell>
        <mxCell id="Eg5a3BYA8h1zlYp_-Abq-14" style="edgeStyle=orthogonalEdgeStyle;rounded=0;orthogonalLoop=1;jettySize=auto;html=1;exitX=0.5;exitY=1;exitDx=0;exitDy=0;entryX=0.5;entryY=0;entryDx=0;entryDy=0;" parent="WIyWlLk6GJQsqaUBKTNV-1" source="Eg5a3BYA8h1zlYp_-Abq-10" target="WIyWlLk6GJQsqaUBKTNV-10" edge="1">
          <mxGeometry relative="1" as="geometry" />
        </mxCell>
        <mxCell id="Eg5a3BYA8h1zlYp_-Abq-35" style="edgeStyle=orthogonalEdgeStyle;rounded=0;orthogonalLoop=1;jettySize=auto;html=1;exitX=0;exitY=0.5;exitDx=0;exitDy=0;entryX=0;entryY=0.5;entryDx=0;entryDy=0;" parent="WIyWlLk6GJQsqaUBKTNV-1" source="Eg5a3BYA8h1zlYp_-Abq-10" target="Eg5a3BYA8h1zlYp_-Abq-33" edge="1">
          <mxGeometry relative="1" as="geometry" />
        </mxCell>
        <mxCell id="Eg5a3BYA8h1zlYp_-Abq-10" value="显示缓存角色" style="rounded=1;whiteSpace=wrap;html=1;fontSize=12;glass=0;strokeWidth=1;shadow=0;" parent="WIyWlLk6GJQsqaUBKTNV-1" vertex="1">
          <mxGeometry x="200" y="217" width="120" height="40" as="geometry" />
        </mxCell>
        <mxCell id="Eg5a3BYA8h1zlYp_-Abq-12" style="edgeStyle=orthogonalEdgeStyle;rounded=0;orthogonalLoop=1;jettySize=auto;html=1;exitX=1;exitY=0.5;exitDx=0;exitDy=0;entryX=0.5;entryY=0;entryDx=0;entryDy=0;" parent="WIyWlLk6GJQsqaUBKTNV-1" source="WIyWlLk6GJQsqaUBKTNV-6" target="WIyWlLk6GJQsqaUBKTNV-7" edge="1">
          <mxGeometry relative="1" as="geometry">
            <mxPoint x="320" y="136.68" as="sourcePoint" />
            <mxPoint x="433" y="199.00000000000006" as="targetPoint" />
          </mxGeometry>
        </mxCell>
        <mxCell id="Eg5a3BYA8h1zlYp_-Abq-17" value="否" style="edgeLabel;html=1;align=center;verticalAlign=middle;resizable=0;points=[];" parent="Eg5a3BYA8h1zlYp_-Abq-12" vertex="1" connectable="0">
          <mxGeometry x="-0.3316" y="1" relative="1" as="geometry">
            <mxPoint as="offset" />
          </mxGeometry>
        </mxCell>
        <mxCell id="Eg5a3BYA8h1zlYp_-Abq-27" style="edgeStyle=orthogonalEdgeStyle;rounded=0;orthogonalLoop=1;jettySize=auto;html=1;exitX=0.5;exitY=1;exitDx=0;exitDy=0;" parent="WIyWlLk6GJQsqaUBKTNV-1" source="Eg5a3BYA8h1zlYp_-Abq-19" target="WIyWlLk6GJQsqaUBKTNV-11" edge="1">
          <mxGeometry relative="1" as="geometry" />
        </mxCell>
        <mxCell id="Eg5a3BYA8h1zlYp_-Abq-28" value="否" style="edgeLabel;html=1;align=center;verticalAlign=middle;resizable=0;points=[];" parent="Eg5a3BYA8h1zlYp_-Abq-27" vertex="1" connectable="0">
          <mxGeometry x="-0.3131" relative="1" as="geometry">
            <mxPoint as="offset" />
          </mxGeometry>
        </mxCell>
        <mxCell id="Eg5a3BYA8h1zlYp_-Abq-30" style="edgeStyle=orthogonalEdgeStyle;rounded=0;orthogonalLoop=1;jettySize=auto;html=1;exitX=1;exitY=0.5;exitDx=0;exitDy=0;" parent="WIyWlLk6GJQsqaUBKTNV-1" source="Eg5a3BYA8h1zlYp_-Abq-19" target="Eg5a3BYA8h1zlYp_-Abq-29" edge="1">
          <mxGeometry relative="1" as="geometry" />
        </mxCell>
        <mxCell id="Eg5a3BYA8h1zlYp_-Abq-32" value="是" style="edgeLabel;html=1;align=center;verticalAlign=middle;resizable=0;points=[];" parent="Eg5a3BYA8h1zlYp_-Abq-30" vertex="1" connectable="0">
          <mxGeometry x="-0.0581" y="1" relative="1" as="geometry">
            <mxPoint as="offset" />
          </mxGeometry>
        </mxCell>
        <mxCell id="Eg5a3BYA8h1zlYp_-Abq-19" value="接口返回当前角色和当前显示的角色是否一致？" style="rhombus;whiteSpace=wrap;html=1;shadow=0;fontFamily=Helvetica;fontSize=12;align=center;strokeWidth=1;spacing=6;spacingTop=-4;" parent="WIyWlLk6GJQsqaUBKTNV-1" vertex="1">
          <mxGeometry x="211" y="452" width="100" height="80" as="geometry" />
        </mxCell>
        <mxCell id="Eg5a3BYA8h1zlYp_-Abq-21" style="edgeStyle=orthogonalEdgeStyle;rounded=0;orthogonalLoop=1;jettySize=auto;html=1;entryX=0.5;entryY=0;entryDx=0;entryDy=0;" parent="WIyWlLk6GJQsqaUBKTNV-1" target="Eg5a3BYA8h1zlYp_-Abq-19" edge="1">
          <mxGeometry relative="1" as="geometry">
            <mxPoint x="260" y="399" as="sourcePoint" />
            <mxPoint x="260.29" y="445.00000000000006" as="targetPoint" />
            <Array as="points" />
          </mxGeometry>
        </mxCell>
        <mxCell id="Eg5a3BYA8h1zlYp_-Abq-22" value="是" style="edgeLabel;html=1;align=center;verticalAlign=middle;resizable=0;points=[];" parent="Eg5a3BYA8h1zlYp_-Abq-21" vertex="1" connectable="0">
          <mxGeometry x="-0.1452" y="-1" relative="1" as="geometry">
            <mxPoint as="offset" />
          </mxGeometry>
        </mxCell>
        <mxCell id="Eg5a3BYA8h1zlYp_-Abq-29" value="角色保持不变" style="rounded=1;whiteSpace=wrap;html=1;fontSize=12;glass=0;strokeWidth=1;shadow=0;" parent="WIyWlLk6GJQsqaUBKTNV-1" vertex="1">
          <mxGeometry x="370" y="472" width="120" height="40" as="geometry" />
        </mxCell>
        <mxCell id="Eg5a3BYA8h1zlYp_-Abq-40" style="edgeStyle=orthogonalEdgeStyle;rounded=0;orthogonalLoop=1;jettySize=auto;html=1;exitX=0.5;exitY=1;exitDx=0;exitDy=0;" parent="WIyWlLk6GJQsqaUBKTNV-1" source="Eg5a3BYA8h1zlYp_-Abq-33" target="Eg5a3BYA8h1zlYp_-Abq-38" edge="1">
          <mxGeometry relative="1" as="geometry" />
        </mxCell>
        <mxCell id="Eg5a3BYA8h1zlYp_-Abq-41" style="edgeStyle=orthogonalEdgeStyle;rounded=0;orthogonalLoop=1;jettySize=auto;html=1;exitX=0.5;exitY=1;exitDx=0;exitDy=0;" parent="WIyWlLk6GJQsqaUBKTNV-1" source="Eg5a3BYA8h1zlYp_-Abq-33" target="Eg5a3BYA8h1zlYp_-Abq-39" edge="1">
          <mxGeometry relative="1" as="geometry" />
        </mxCell>
        <mxCell id="Eg5a3BYA8h1zlYp_-Abq-43" style="edgeStyle=orthogonalEdgeStyle;rounded=0;orthogonalLoop=1;jettySize=auto;html=1;exitX=0.5;exitY=1;exitDx=0;exitDy=0;" parent="WIyWlLk6GJQsqaUBKTNV-1" source="Eg5a3BYA8h1zlYp_-Abq-33" target="Eg5a3BYA8h1zlYp_-Abq-37" edge="1">
          <mxGeometry relative="1" as="geometry" />
        </mxCell>
        <mxCell id="Eg5a3BYA8h1zlYp_-Abq-33" value="显示角色" style="rounded=1;whiteSpace=wrap;html=1;fontSize=12;glass=0;strokeWidth=1;shadow=0;" parent="WIyWlLk6GJQsqaUBKTNV-1" vertex="1">
          <mxGeometry x="201" y="668" width="120" height="40" as="geometry" />
        </mxCell>
        <mxCell id="Eg5a3BYA8h1zlYp_-Abq-37" value="商户" style="rounded=1;whiteSpace=wrap;html=1;fontSize=12;glass=0;strokeWidth=1;shadow=0;" parent="WIyWlLk6GJQsqaUBKTNV-1" vertex="1">
          <mxGeometry x="519" y="751" width="120" height="40" as="geometry" />
        </mxCell>
        <mxCell id="Eg5a3BYA8h1zlYp_-Abq-51" style="edgeStyle=orthogonalEdgeStyle;rounded=0;orthogonalLoop=1;jettySize=auto;html=1;exitX=0.5;exitY=1;exitDx=0;exitDy=0;" parent="WIyWlLk6GJQsqaUBKTNV-1" source="Eg5a3BYA8h1zlYp_-Abq-38" edge="1">
          <mxGeometry relative="1" as="geometry">
            <mxPoint x="235" y="859" as="targetPoint" />
          </mxGeometry>
        </mxCell>
        <mxCell id="Eg5a3BYA8h1zlYp_-Abq-38" value="云商服" style="rounded=1;whiteSpace=wrap;html=1;fontSize=12;glass=0;strokeWidth=1;shadow=0;" parent="WIyWlLk6GJQsqaUBKTNV-1" vertex="1">
          <mxGeometry x="61" y="749" width="120" height="40" as="geometry" />
        </mxCell>
        <mxCell id="Eg5a3BYA8h1zlYp_-Abq-52" style="edgeStyle=orthogonalEdgeStyle;rounded=0;orthogonalLoop=1;jettySize=auto;html=1;exitX=0.5;exitY=1;exitDx=0;exitDy=0;entryX=0.5;entryY=0;entryDx=0;entryDy=0;" parent="WIyWlLk6GJQsqaUBKTNV-1" source="Eg5a3BYA8h1zlYp_-Abq-39" target="Eg5a3BYA8h1zlYp_-Abq-45" edge="1">
          <mxGeometry relative="1" as="geometry" />
        </mxCell>
        <mxCell id="Eg5a3BYA8h1zlYp_-Abq-39" value="会拓客" style="rounded=1;whiteSpace=wrap;html=1;fontSize=12;glass=0;strokeWidth=1;shadow=0;" parent="WIyWlLk6GJQsqaUBKTNV-1" vertex="1">
          <mxGeometry x="201" y="747" width="120" height="40" as="geometry" />
        </mxCell>
        <mxCell id="Eg5a3BYA8h1zlYp_-Abq-58" style="edgeStyle=orthogonalEdgeStyle;rounded=0;orthogonalLoop=1;jettySize=auto;html=1;exitX=0.5;exitY=1;exitDx=0;exitDy=0;" parent="WIyWlLk6GJQsqaUBKTNV-1" source="Eg5a3BYA8h1zlYp_-Abq-45" target="Eg5a3BYA8h1zlYp_-Abq-55" edge="1">
          <mxGeometry relative="1" as="geometry" />
        </mxCell>
        <mxCell id="Eg5a3BYA8h1zlYp_-Abq-59" style="edgeStyle=orthogonalEdgeStyle;rounded=0;orthogonalLoop=1;jettySize=auto;html=1;exitX=0.5;exitY=1;exitDx=0;exitDy=0;" parent="WIyWlLk6GJQsqaUBKTNV-1" source="Eg5a3BYA8h1zlYp_-Abq-45" target="Eg5a3BYA8h1zlYp_-Abq-56" edge="1">
          <mxGeometry relative="1" as="geometry" />
        </mxCell>
        <mxCell id="Eg5a3BYA8h1zlYp_-Abq-60" style="edgeStyle=orthogonalEdgeStyle;rounded=0;orthogonalLoop=1;jettySize=auto;html=1;exitX=0.5;exitY=1;exitDx=0;exitDy=0;" parent="WIyWlLk6GJQsqaUBKTNV-1" source="Eg5a3BYA8h1zlYp_-Abq-45" target="Eg5a3BYA8h1zlYp_-Abq-54" edge="1">
          <mxGeometry relative="1" as="geometry" />
        </mxCell>
        <mxCell id="Eg5a3BYA8h1zlYp_-Abq-45" value="统一账号或新旧联合登录" style="rounded=1;whiteSpace=wrap;html=1;fontSize=12;glass=0;strokeWidth=1;shadow=0;" parent="WIyWlLk6GJQsqaUBKTNV-1" vertex="1">
          <mxGeometry x="175" y="859" width="120" height="40" as="geometry" />
        </mxCell>
        <mxCell id="Eg5a3BYA8h1zlYp_-Abq-50" style="edgeStyle=orthogonalEdgeStyle;rounded=0;orthogonalLoop=1;jettySize=auto;html=1;exitX=0.5;exitY=1;exitDx=0;exitDy=0;" parent="WIyWlLk6GJQsqaUBKTNV-1" source="Eg5a3BYA8h1zlYp_-Abq-46" target="Eg5a3BYA8h1zlYp_-Abq-45" edge="1">
          <mxGeometry relative="1" as="geometry" />
        </mxCell>
        <mxCell id="Eg5a3BYA8h1zlYp_-Abq-46" value="其他角色" style="rounded=1;whiteSpace=wrap;html=1;fontSize=12;glass=0;strokeWidth=1;shadow=0;" parent="WIyWlLk6GJQsqaUBKTNV-1" vertex="1">
          <mxGeometry x="359" y="749" width="120" height="40" as="geometry" />
        </mxCell>
        <mxCell id="Eg5a3BYA8h1zlYp_-Abq-54" value="云商服登录页/首页" style="rounded=1;whiteSpace=wrap;html=1;fontSize=12;glass=0;strokeWidth=1;shadow=0;" parent="WIyWlLk6GJQsqaUBKTNV-1" vertex="1">
          <mxGeometry x="61" y="938" width="120" height="40" as="geometry" />
        </mxCell>
        <mxCell id="Eg5a3BYA8h1zlYp_-Abq-55" value="会拓客登录页/首页" style="rounded=1;whiteSpace=wrap;html=1;fontSize=12;glass=0;strokeWidth=1;shadow=0;" parent="WIyWlLk6GJQsqaUBKTNV-1" vertex="1">
          <mxGeometry x="201" y="938" width="120" height="40" as="geometry" />
        </mxCell>
        <mxCell id="Eg5a3BYA8h1zlYp_-Abq-56" value="其他角色登录页/首页" style="rounded=1;whiteSpace=wrap;html=1;fontSize=12;glass=0;strokeWidth=1;shadow=0;" parent="WIyWlLk6GJQsqaUBKTNV-1" vertex="1">
          <mxGeometry x="359" y="938" width="120" height="40" as="geometry" />
        </mxCell>
        <mxCell id="Eg5a3BYA8h1zlYp_-Abq-68" style="edgeStyle=orthogonalEdgeStyle;rounded=0;orthogonalLoop=1;jettySize=auto;html=1;exitX=0.5;exitY=1;exitDx=0;exitDy=0;" parent="WIyWlLk6GJQsqaUBKTNV-1" source="Eg5a3BYA8h1zlYp_-Abq-61" target="Eg5a3BYA8h1zlYp_-Abq-62" edge="1">
          <mxGeometry relative="1" as="geometry">
            <Array as="points">
              <mxPoint x="185" y="1040" />
              <mxPoint x="101" y="1040" />
            </Array>
          </mxGeometry>
        </mxCell>
        <mxCell id="Eg5a3BYA8h1zlYp_-Abq-69" style="edgeStyle=orthogonalEdgeStyle;rounded=0;orthogonalLoop=1;jettySize=auto;html=1;exitX=0.5;exitY=1;exitDx=0;exitDy=0;" parent="WIyWlLk6GJQsqaUBKTNV-1" source="Eg5a3BYA8h1zlYp_-Abq-61" target="Eg5a3BYA8h1zlYp_-Abq-65" edge="1">
          <mxGeometry relative="1" as="geometry" />
        </mxCell>
        <mxCell id="Eg5a3BYA8h1zlYp_-Abq-61" value="主题适配" style="rounded=1;whiteSpace=wrap;html=1;fontSize=12;glass=0;strokeWidth=1;shadow=0;" parent="WIyWlLk6GJQsqaUBKTNV-1" vertex="1">
          <mxGeometry x="140" y="991" width="91" height="30" as="geometry" />
        </mxCell>
        <mxCell id="Eg5a3BYA8h1zlYp_-Abq-62" value="商户" style="rounded=1;whiteSpace=wrap;html=1;fontSize=12;glass=0;strokeWidth=1;shadow=0;" parent="WIyWlLk6GJQsqaUBKTNV-1" vertex="1">
          <mxGeometry x="61" y="1060" width="79" height="30" as="geometry" />
        </mxCell>
        <mxCell id="Eg5a3BYA8h1zlYp_-Abq-71" style="edgeStyle=orthogonalEdgeStyle;rounded=0;orthogonalLoop=1;jettySize=auto;html=1;exitX=1;exitY=0.5;exitDx=0;exitDy=0;" parent="WIyWlLk6GJQsqaUBKTNV-1" source="Eg5a3BYA8h1zlYp_-Abq-65" target="Eg5a3BYA8h1zlYp_-Abq-67" edge="1">
          <mxGeometry relative="1" as="geometry" />
        </mxCell>
        <mxCell id="Eg5a3BYA8h1zlYp_-Abq-65" value="其他角色" style="rounded=1;whiteSpace=wrap;html=1;fontSize=12;glass=0;strokeWidth=1;shadow=0;" parent="WIyWlLk6GJQsqaUBKTNV-1" vertex="1">
          <mxGeometry x="175" y="1060" width="79" height="30" as="geometry" />
        </mxCell>
        <mxCell id="Eg5a3BYA8h1zlYp_-Abq-66" value="今日交易展示UI优化（透明背景，适应主题），标题头部按新ui，暂不做适配主题" style="rounded=1;whiteSpace=wrap;html=1;fontSize=12;glass=0;strokeWidth=1;shadow=0;" parent="WIyWlLk6GJQsqaUBKTNV-1" vertex="1">
          <mxGeometry y="1110" width="209" height="50" as="geometry" />
        </mxCell>
        <mxCell id="Eg5a3BYA8h1zlYp_-Abq-67" value="保留导航底部按钮主题，，标题头部按新ui，暂不做适配主题" style="rounded=1;whiteSpace=wrap;html=1;fontSize=12;glass=0;strokeWidth=1;shadow=0;" parent="WIyWlLk6GJQsqaUBKTNV-1" vertex="1">
          <mxGeometry x="220" y="1110" width="209" height="50" as="geometry" />
        </mxCell>
        <mxCell id="Eg5a3BYA8h1zlYp_-Abq-74" style="edgeStyle=orthogonalEdgeStyle;rounded=0;orthogonalLoop=1;jettySize=auto;html=1;exitX=0;exitY=0.5;exitDx=0;exitDy=0;entryX=0.214;entryY=-0.04;entryDx=0;entryDy=0;entryPerimeter=0;" parent="WIyWlLk6GJQsqaUBKTNV-1" source="Eg5a3BYA8h1zlYp_-Abq-62" target="Eg5a3BYA8h1zlYp_-Abq-66" edge="1">
          <mxGeometry relative="1" as="geometry" />
        </mxCell>
        <mxCell id="Eg5a3BYA8h1zlYp_-Abq-78" style="edgeStyle=orthogonalEdgeStyle;rounded=0;orthogonalLoop=1;jettySize=auto;html=1;exitX=0.5;exitY=1;exitDx=0;exitDy=0;" parent="WIyWlLk6GJQsqaUBKTNV-1" source="Eg5a3BYA8h1zlYp_-Abq-76" target="Eg5a3BYA8h1zlYp_-Abq-77" edge="1">
          <mxGeometry relative="1" as="geometry" />
        </mxCell>
        <mxCell id="Eg5a3BYA8h1zlYp_-Abq-76" value="除商户外角色（会拓客/云商服首页角色流程）" style="rounded=1;whiteSpace=wrap;html=1;fontSize=12;glass=0;strokeWidth=1;shadow=0;" parent="WIyWlLk6GJQsqaUBKTNV-1" vertex="1">
          <mxGeometry x="580" y="978" width="200" height="30" as="geometry" />
        </mxCell>
        <mxCell id="Eg5a3BYA8h1zlYp_-Abq-77" value="原有App流程下移除以下流程：请求首页默认跳转，请求协议更新和防诈骗，新手指引操作。保留：开屏、插屏和旧弹窗广告，悬浮按钮活动入口，app检查更新、推送点击跳转、指纹手势验证" style="rounded=1;whiteSpace=wrap;html=1;fontSize=12;glass=0;strokeWidth=1;shadow=0;" parent="WIyWlLk6GJQsqaUBKTNV-1" vertex="1">
          <mxGeometry x="560" y="1040" width="240" height="100" as="geometry" />
        </mxCell>
      </root>
    </mxGraphModel>
  </diagram>
</mxfile>
